<svg width="22" height="22" viewBox="0 0 22 22" fill="none" xmlns="http://www.w3.org/2000/svg">
<path d="M5 5H13M5 9H17M12 13H17M12 17H17M1 20.4V1.6C1 1.44087 1.06321 1.28826 1.17574 1.17574C1.28826 1.06321 1.44087 1 1.6 1H17.252C17.4111 1.00014 17.5636 1.06345 17.676 1.176L20.824 4.324C20.88 4.3799 20.9243 4.44632 20.9545 4.51943C20.9847 4.59254 21.0002 4.6709 21 4.75V20.4C21 20.4788 20.9845 20.5568 20.9543 20.6296C20.9242 20.7024 20.88 20.7685 20.8243 20.8243C20.7685 20.88 20.7024 20.9242 20.6296 20.9543C20.5568 20.9845 20.4788 21 20.4 21H1.6C1.52121 21 1.44319 20.9845 1.37039 20.9543C1.29759 20.9242 1.23145 20.88 1.17574 20.8243C1.12002 20.7685 1.07583 20.7024 1.04567 20.6296C1.01552 20.5568 1 20.4788 1 20.4Z" stroke="#E9041E" stroke-width="1.5" stroke-linecap="round" stroke-linejoin="round"/>
<path d="M17 1V4.4C17 4.47879 17.0155 4.55681 17.0457 4.62961C17.0758 4.70241 17.12 4.76855 17.1757 4.82426C17.2315 4.87998 17.2976 4.92417 17.3704 4.95433C17.4432 4.98448 17.5212 5 17.6 5H21M5 17V13H8V17H5Z" stroke="#E9041E" stroke-width="1.5" stroke-linecap="round" stroke-linejoin="round"/>
</svg>
