<svg width="340" height="70" viewBox="0 0 340 70" fill="none" xmlns="http://www.w3.org/2000/svg">
<rect x="92.1948" y="19.2579" width="5.12903" height="32.4839" rx="2.56452" fill="#E9041E"/>
<rect x="66.5488" y="29.5161" width="5.12903" height="11.9677" rx="2.56452" fill="#E9041E"/>
<rect x="117.841" y="10.7096" width="5.12903" height="49.5806" rx="2.56452" fill="#E9041E"/>
<rect x="100.742" y="32.9356" width="5.12903" height="5.12903" rx="2.56452" fill="#E9041E"/>
<rect x="75.0977" y="9" width="5.12903" height="53" rx="2.56452" fill="#E9041E"/>
<rect x="126.387" y="19.2579" width="5.12903" height="32.4839" rx="2.56452" fill="#E9041E"/>
<rect x="58" y="22.6774" width="5.12903" height="25.6452" rx="2.56452" fill="#E9041E"/>
<rect x="109.292" y="24.3871" width="5.12903" height="22.2258" rx="2.56452" fill="#E9041E"/>
<rect x="83.645" y="24.3871" width="5.12903" height="22.2258" rx="2.56452" fill="#E9041E"/>
<rect x="134.936" y="29.5161" width="5.12903" height="11.9677" rx="2.56452" fill="#E9041E"/>
<rect x="178.195" y="19.2579" width="5.12903" height="32.4839" rx="2.56452" fill="#E9041E"/>
<rect x="152.549" y="29.5161" width="5.12903" height="11.9677" rx="2.56452" fill="#E9041E"/>
<rect x="203.841" y="10.7096" width="5.12903" height="49.5806" rx="2.56452" fill="#E9041E"/>
<rect x="186.742" y="32.9356" width="5.12903" height="5.12903" rx="2.56452" fill="#E9041E"/>
<rect x="161.098" y="9" width="5.12903" height="53" rx="2.56452" fill="#E9041E"/>
<rect x="212.387" y="19.2579" width="5.12903" height="32.4839" rx="2.56452" fill="#E9041E"/>
<rect x="144" y="22.6774" width="5.12903" height="25.6452" rx="2.56452" fill="#E9041E"/>
<rect x="195.292" y="24.3871" width="5.12903" height="22.2258" rx="2.56452" fill="#E9041E"/>
<rect x="169.645" y="24.3871" width="5.12903" height="22.2258" rx="2.56452" fill="#E9041E"/>
<rect x="220.936" y="29.5161" width="5.12903" height="11.9677" rx="2.56452" fill="#E9041E"/>
<rect x="264.195" y="19.2579" width="5.12903" height="32.4839" rx="2.56452" fill="#E9041E"/>
<rect x="238.549" y="29.5161" width="5.12903" height="11.9677" rx="2.56452" fill="#E9041E"/>
<rect x="289.841" y="10.7096" width="5.12903" height="49.5806" rx="2.56452" fill="#E9041E"/>
<rect x="272.742" y="32.9356" width="5.12903" height="5.12903" rx="2.56452" fill="#E9041E"/>
<rect x="247.098" y="9" width="5.12903" height="53" rx="2.56452" fill="#E9041E"/>
<rect x="298.387" y="19.2579" width="5.12903" height="32.4839" rx="2.56452" fill="#E9041E"/>
<rect x="230" y="22.6774" width="5.12903" height="25.6452" rx="2.56452" fill="#E9041E"/>
<rect x="281.292" y="24.3871" width="5.12903" height="22.2258" rx="2.56452" fill="#E9041E"/>
<rect x="255.645" y="24.3871" width="5.12903" height="22.2258" rx="2.56452" fill="#E9041E"/>
<rect x="306.936" y="29.5161" width="5.12903" height="11.9677" rx="2.56452" fill="#E9041E"/>
<rect x="0.5" y="0.5" width="339" height="69" rx="34.5" stroke="#E9041E"/>
<path d="M36.6599 34.2323C38.0792 34.9834 38.0792 37.0166 36.6599 37.7677L24.9355 43.9727C23.6035 44.6776 22 43.712 22 42.205V29.795C22 28.288 23.6035 27.3224 24.9355 28.0273L36.6599 34.2323Z" fill="#E9041E"/>
</svg>
